<svg xmlns="http://www.w3.org/2000/svg" viewBox="0 0 700 290" role="img" fill="none"><defs></defs><rect x="150" y="10" width="420" height="270" rx="10" fill="#0F1217" stroke="#3A4250" stroke-width="1.2"/><line x1="150" y1="32" x2="570" y2="32" stroke="#262D38" stroke-width="1" stroke-linecap="round"/><circle cx="164" cy="21" r="3" fill="#C85C5C"/><circle cx="175" cy="21" r="3" fill="#CE913B"/><circle cx="186" cy="21" r="3" fill="#2CAB7C"/><text x="360.0" y="24.8" font-family="DM Sans" font-size="10.58" font-weight="600" fill="#8892A4" text-anchor="middle">Team inbox</text><line x1="250" y1="32" x2="250" y2="280" stroke="#262D38" stroke-width="1" stroke-linecap="round"/><circle cx="166" cy="49" r="4" fill="#34D399"/><text x="176" y="52" font-family="DM Sans" font-size="10.26" font-weight="400" fill="#EEF3FA" text-anchor="start">WhatsApp 1</text><circle cx="166" cy="73" r="4" fill="#34D399"/><text x="176" y="76" font-family="DM Sans" font-size="10.26" font-weight="400" fill="#EEF3FA" text-anchor="start">WhatsApp 2</text><circle cx="166" cy="97" r="4" fill="#34D399"/><text x="176" y="100" font-family="DM Sans" font-size="10.26" font-weight="400" fill="#EEF3FA" text-anchor="start">WhatsApp 3</text><circle cx="166" cy="121" r="4" fill="#7B35C1"/><text x="176" y="124" font-family="DM Sans" font-size="10.26" font-weight="400" fill="#EEF3FA" text-anchor="start">Instagram</text><circle cx="166" cy="145" r="4" fill="#00C8FF"/><text x="176" y="148" font-family="DM Sans" font-size="10.26" font-weight="400" fill="#EEF3FA" text-anchor="start">Website</text><circle cx="166" cy="169" r="4" fill="#8892A4"/><text x="176" y="172" font-family="DM Sans" font-size="10.26" font-weight="400" fill="#EEF3FA" text-anchor="start">Email</text><line x1="400" y1="32" x2="400" y2="280" stroke="#262D38" stroke-width="1" stroke-linecap="round"/><rect x="254" y="38" width="142" height="42" rx="6" fill="#161B22" stroke="#00C8FF" stroke-width="0.8"/><circle cx="268" cy="52" r="8" fill="#1C222B" stroke="#3A4250" stroke-width="0.8"/><rect x="282" y="45" width="60" height="4.5" rx="2.5" fill="#3A4250" /><rect x="282" y="56" width="88" height="4.5" rx="2.5" fill="#3A4250" /><rect x="282" y="62" width="33.7" height="14" rx="7.0" fill="#09252C" stroke="#047391" stroke-width=".8"/><text x="287" y="72.24" font-family="DM Sans" font-size="10.58" font-weight="600" fill="#00C8FF" text-anchor="start">Open</text><circle cx="384" cy="50" r="6" fill="#1E0F33" stroke="#7B35C1" stroke-width="0.8"/><circle cx="268" cy="98" r="8" fill="#1C222B" stroke="#3A4250" stroke-width="0.8"/><rect x="282" y="91" width="60" height="4.5" rx="2.5" fill="#3A4250" /><rect x="282" y="102" width="88" height="4.5" rx="2.5" fill="#3A4250" /><rect x="282" y="108" width="51.5" height="14" rx="7.0" fill="#2C2213" stroke="#91672C" stroke-width=".8"/><text x="287" y="118.24" font-family="DM Sans" font-size="10.58" font-weight="600" fill="#FFB347" text-anchor="start">Pending</text><circle cx="384" cy="96" r="6" fill="#1E0F33" stroke="#7B35C1" stroke-width="0.8"/><circle cx="268" cy="144" r="8" fill="#1C222B" stroke="#3A4250" stroke-width="0.8"/><rect x="282" y="137" width="60" height="4.5" rx="2.5" fill="#3A4250" /><rect x="282" y="148" width="88" height="4.5" rx="2.5" fill="#3A4250" /><rect x="282" y="154" width="33.7" height="14" rx="7.0" fill="#09252C" stroke="#047391" stroke-width=".8"/><text x="287" y="164.24" font-family="DM Sans" font-size="10.58" font-weight="600" fill="#00C8FF" text-anchor="start">Open</text><circle cx="384" cy="142" r="6" fill="#1E0F33" stroke="#7B35C1" stroke-width="0.8"/><circle cx="268" cy="190" r="8" fill="#1C222B" stroke="#3A4250" stroke-width="0.8"/><rect x="282" y="183" width="60" height="4.5" rx="2.5" fill="#3A4250" /><rect x="282" y="194" width="88" height="4.5" rx="2.5" fill="#3A4250" /><rect x="282" y="200" width="57.4" height="14" rx="7.0" fill="#10261E" stroke="#217959" stroke-width=".8"/><text x="287" y="210.24" font-family="DM Sans" font-size="10.58" font-weight="600" fill="#34D399" text-anchor="start">Resolved</text><circle cx="384" cy="188" r="6" fill="#1E0F33" stroke="#7B35C1" stroke-width="0.8"/><circle cx="268" cy="236" r="8" fill="#1C222B" stroke="#3A4250" stroke-width="0.8"/><rect x="282" y="229" width="60" height="4.5" rx="2.5" fill="#3A4250" /><rect x="282" y="240" width="88" height="4.5" rx="2.5" fill="#3A4250" /><rect x="282" y="246" width="51.5" height="14" rx="7.0" fill="#1C1D20" stroke="#4F555F" stroke-width=".8"/><text x="287" y="256.24" font-family="DM Sans" font-size="10.58" font-weight="600" fill="#8892A4" text-anchor="start">Snoozed</text><circle cx="384" cy="234" r="6" fill="#1E0F33" stroke="#7B35C1" stroke-width="0.8"/><rect x="408" y="40" width="154" height="18" rx="5" fill="#06303D" /><text x="416" y="52" font-family="DM Sans" font-size="10.58" font-weight="600" fill="#00C8FF" text-anchor="start">Priya is replying</text><rect x="408" y="68" width="110" height="34" rx="10" fill="#1C222B" stroke="#3A4250" stroke-width="0.8"/><rect x="416" y="78" width="86" height="4.5" rx="2.5" fill="#3A4250" /><rect x="416" y="89" width="60" height="4.5" rx="2.5" fill="#3A4250" /><rect x="452" y="110" width="110" height="34" rx="10" fill="#06303D" stroke="#00C8FF" stroke-width="0.8"/><rect x="460" y="120" width="90" height="4.5" rx="2.5" fill="#00C8FF" /><rect x="460" y="131" width="52" height="4.5" rx="2.5" fill="#00C8FF" /><rect x="408" y="154" width="154" height="42" rx="8" fill="#2E1A05" stroke="#FF8A00" stroke-width="0.8"/><text x="416" y="168" font-family="DM Sans" font-size="10.58" font-weight="600" fill="#FFB347" text-anchor="start">Private note</text><text x="416" y="185" font-family="DM Sans" font-size="10.26" font-weight="400" fill="#EEF3FA" text-anchor="start">@Priya call not picked</text><rect x="408" y="240" width="154" height="26" rx="13" fill="#12161C" stroke="#3A4250" stroke-width="0.8"/><rect x="420" y="251" width="80" height="4.5" rx="2.5" fill="#3A4250" /><circle cx="550" cy="253" r="7" fill="#00C8FF"/><rect x="164" y="254" width="72" height="18" rx="9" fill="#000000" stroke="#3A4250" stroke-width="0.8"/><text x="200" y="267" font-family="DM Sans" font-size="10.58" font-weight="600" fill="#8892A4" text-anchor="middle">Example</text><circle cx="166" cy="73" r="3.2" fill="#000000" stroke="#34D399" stroke-width="1.4"/><circle cx="166" cy="73" r="1.3" fill="#34D399"/><path d="M166 73 L142 44 L128 44" stroke="#27976E" stroke-width="0.9" fill="none" stroke-linecap="round" stroke-linejoin="round"/><text x="123" y="47.8" font-family="DM Sans" font-size="11.88" font-weight="600" fill="#EEF3FA" text-anchor="end">Unlimited WhatsApp</text><text x="123" y="61" font-family="DM Sans" font-size="10.26" font-weight="400" fill="#8892A4" text-anchor="end">numbers, used at once</text><circle cx="562" cy="49" r="3.2" fill="#000000" stroke="#00C8FF" stroke-width="1.4"/><circle cx="562" cy="49" r="1.3" fill="#00C8FF"/><path d="M562 49 L574 44 L588 44" stroke="#038FB6" stroke-width="0.9" fill="none" stroke-linecap="round" stroke-linejoin="round"/><text x="593" y="47.8" font-family="DM Sans" font-size="11.88" font-weight="600" fill="#EEF3FA" text-anchor="start">Collision alerts</text><circle cx="562" cy="175" r="3.2" fill="#000000" stroke="#FFB347" stroke-width="1.4"/><circle cx="562" cy="175" r="1.3" fill="#FFB347"/><path d="M562 175 L574 160 L588 160" stroke="#B68035" stroke-width="0.9" fill="none" stroke-linecap="round" stroke-linejoin="round"/><text x="593" y="163.8" font-family="DM Sans" font-size="11.88" font-weight="600" fill="#EEF3FA" text-anchor="start">Private notes</text><text x="593" y="177" font-family="DM Sans" font-size="10.26" font-weight="400" fill="#8892A4" text-anchor="start">@mentions</text></svg>
