<svg xmlns="http://www.w3.org/2000/svg" viewBox="0 0 700 290" role="img" fill="none"><defs></defs><text x="18" y="26" font-family="DM Sans" font-size="10.58" font-weight="600" fill="#8892A4" text-anchor="start">You type in chat</text><rect x="18" y="36" width="240" height="70" rx="10" fill="#06303D" stroke="#00C8FF" stroke-width="0.8"/><text x="30" y="58" font-family="DM Sans" font-size="12.42" font-weight="500" fill="#EEF3FA" text-anchor="start">Find 50 marketing heads at</text><text x="30" y="74" font-family="DM Sans" font-size="12.42" font-weight="500" fill="#EEF3FA" text-anchor="start">real estate firms in Pune</text><rect x="18" y="118" width="200" height="44" rx="10" fill="#1C222B" stroke="#3A4250" stroke-width="0.8"/><text x="30" y="136.0" font-family="DM Sans" font-size="10.26" font-weight="400" fill="#EEF3FA" text-anchor="start">On it. Your list will be in</text><text x="30" y="148.5" font-family="DM Sans" font-size="10.26" font-weight="400" fill="#EEF3FA" text-anchor="start">the sheet by morning.</text><rect x="18" y="176" width="156.2" height="17" rx="8.5" fill="#2C2213" stroke="#91672C" stroke-width=".8"/><text x="25" y="187.74" font-family="DM Sans" font-size="10.58" font-weight="600" fill="#FFB347" text-anchor="start">Hiring now · 6 companies</text><text x="18" y="214" font-family="DM Sans" font-size="10.58" font-weight="600" fill="#8892A4" text-anchor="start">Job posts = buying signal</text><line x1="262" y1="72" x2="292" y2="72" stroke="#00C8FF" stroke-width="1.4" stroke-linecap="round"/><path d="M287.6 74.4 L292 72 L287.6 69.6" stroke="#00C8FF" stroke-width="1.4" fill="none" stroke-linecap="round" stroke-linejoin="round"/><rect x="296" y="12" width="392" height="268" rx="10" fill="#0F1217" stroke="#3A4250" stroke-width="1.2"/><line x1="296" y1="34" x2="688" y2="34" stroke="#262D38" stroke-width="1" stroke-linecap="round"/><circle cx="310" cy="23" r="3" fill="#C85C5C"/><circle cx="321" cy="23" r="3" fill="#CE913B"/><circle cx="332" cy="23" r="3" fill="#2CAB7C"/><text x="492.0" y="26.8" font-family="DM Sans" font-size="10.58" font-weight="600" fill="#8892A4" text-anchor="middle">Leads · Google Sheet</text><text x="308" y="54" font-family="DM Sans" font-size="10.58" font-weight="600" fill="#8892A4" text-anchor="start">Name</text><text x="396" y="54" font-family="DM Sans" font-size="10.58" font-weight="600" fill="#8892A4" text-anchor="start">Title</text><text x="504" y="54" font-family="DM Sans" font-size="10.58" font-weight="600" fill="#8892A4" text-anchor="start">Company</text><text x="588" y="54" font-family="DM Sans" font-size="10.58" font-weight="600" fill="#8892A4" text-anchor="start">Work email</text><line x1="296" y1="62" x2="688" y2="62" stroke="#262D38" stroke-width="1" stroke-linecap="round"/><rect x="308" y="72" width="70" height="5" rx="2.5" fill="#3A4250" /><text x="396" y="78" font-family="DM Sans" font-size="10.26" font-weight="400" fill="#EEF3FA" text-anchor="start">Marketing Head</text><rect x="504" y="72" width="62" height="5" rx="2.5" fill="#3A4250" /><rect x="588" y="72" width="60" height="5" rx="2.5" fill="#00C8FF" /><path d="M660 74.0 l3.5 3.5 l6.5 -7.5" stroke="#34D399" stroke-width="1.6" fill="none" stroke-linecap="round" stroke-linejoin="round"/><line x1="304" y1="92" x2="680" y2="92" stroke="#262D38" stroke-width="0.6" stroke-linecap="round"/><rect x="308" y="104" width="70" height="5" rx="2.5" fill="#3A4250" /><text x="396" y="110" font-family="DM Sans" font-size="10.26" font-weight="400" fill="#EEF3FA" text-anchor="start">Head of Marketing</text><rect x="504" y="104" width="62" height="5" rx="2.5" fill="#3A4250" /><rect x="588" y="104" width="60" height="5" rx="2.5" fill="#00C8FF" /><path d="M660 106.0 l3.5 3.5 l6.5 -7.5" stroke="#34D399" stroke-width="1.6" fill="none" stroke-linecap="round" stroke-linejoin="round"/><line x1="304" y1="124" x2="680" y2="124" stroke="#262D38" stroke-width="0.6" stroke-linecap="round"/><rect x="308" y="136" width="70" height="5" rx="2.5" fill="#3A4250" /><text x="396" y="142" font-family="DM Sans" font-size="10.26" font-weight="400" fill="#EEF3FA" text-anchor="start">Marketing Manager</text><rect x="504" y="136" width="62" height="5" rx="2.5" fill="#3A4250" /><rect x="588" y="136" width="60" height="5" rx="2.5" fill="#00C8FF" /><path d="M660 138.0 l3.5 3.5 l6.5 -7.5" stroke="#34D399" stroke-width="1.6" fill="none" stroke-linecap="round" stroke-linejoin="round"/><line x1="304" y1="156" x2="680" y2="156" stroke="#262D38" stroke-width="0.6" stroke-linecap="round"/><rect x="308" y="168" width="70" height="5" rx="2.5" fill="#3A4250" /><text x="396" y="174" font-family="DM Sans" font-size="10.26" font-weight="400" fill="#EEF3FA" text-anchor="start">CMO</text><rect x="504" y="168" width="62" height="5" rx="2.5" fill="#3A4250" /><rect x="588" y="168" width="60" height="5" rx="2.5" fill="#00C8FF" /><path d="M660 170.0 l3.5 3.5 l6.5 -7.5" stroke="#34D399" stroke-width="1.6" fill="none" stroke-linecap="round" stroke-linejoin="round"/><line x1="304" y1="188" x2="680" y2="188" stroke="#262D38" stroke-width="0.6" stroke-linecap="round"/><rect x="308" y="200" width="70" height="5" rx="2.5" fill="#3A4250" /><text x="396" y="206" font-family="DM Sans" font-size="10.26" font-weight="400" fill="#EEF3FA" text-anchor="start">Brand Manager</text><rect x="504" y="200" width="62" height="5" rx="2.5" fill="#3A4250" /><rect x="588" y="200" width="30" height="5" rx="2.5" fill="#00C8FF" /><rect x="626" y="194" width="37.6" height="14" rx="7.0" fill="#2C2213" stroke="#91672C" stroke-width=".8"/><text x="630" y="204.24" font-family="DM Sans" font-size="10.58" font-weight="600" fill="#FFB347" text-anchor="start">Check</text><line x1="304" y1="220" x2="680" y2="220" stroke="#262D38" stroke-width="0.6" stroke-linecap="round"/><rect x="308" y="232" width="70" height="5" rx="2.5" fill="#3A4250" /><text x="396" y="238" font-family="DM Sans" font-size="10.26" font-weight="400" fill="#EEF3FA" text-anchor="start">Growth Lead</text><rect x="504" y="232" width="62" height="5" rx="2.5" fill="#3A4250" /><rect x="588" y="232" width="60" height="5" rx="2.5" fill="#00C8FF" /><path d="M660 234.0 l3.5 3.5 l6.5 -7.5" stroke="#34D399" stroke-width="1.6" fill="none" stroke-linecap="round" stroke-linejoin="round"/><line x1="304" y1="252" x2="680" y2="252" stroke="#262D38" stroke-width="0.6" stroke-linecap="round"/><rect x="308" y="248" width="200" height="22" rx="6" fill="#1E0F33" stroke="#7B35C1" stroke-width="0.8"/><text x="318" y="263" font-family="DM Sans" font-size="10.58" font-weight="600" fill="#EEF3FA" text-anchor="start">First message drafted</text><rect x="604" y="250" width="72" height="18" rx="9" fill="#000000" stroke="#3A4250" stroke-width="0.8"/><text x="640" y="263" font-family="DM Sans" font-size="10.58" font-weight="600" fill="#8892A4" text-anchor="middle">Example</text></svg>
