<svg xmlns="http://www.w3.org/2000/svg" viewBox="0 0 700 290" role="img" fill="none"><defs></defs><text x="18" y="26" font-family="JetBrains Mono" font-size="9.72" font-weight="500" fill="#6E6A8A" text-anchor="start" letter-spacing="1.2">YOU TYPE IN CHAT</text><rect x="18" y="36" width="240" height="70" rx="10" fill="#E4F8FF" stroke="#00C8FF" stroke-width="0.8"/><text x="30" y="58" font-family="DM Sans" font-size="12.42" font-weight="500" fill="#1C1836" text-anchor="start">Find 50 marketing heads at</text><text x="30" y="74" font-family="DM Sans" font-size="12.42" font-weight="500" fill="#1C1836" text-anchor="start">real estate firms in Pune</text><rect x="18" y="118" width="200" height="44" rx="10" fill="#ECE7F7" stroke="#CEC5E4" stroke-width="0.8"/><text x="30" y="136.0" font-family="DM Sans" font-size="10.26" font-weight="400" fill="#1C1836" text-anchor="start">On it. Your list will be in</text><text x="30" y="148.5" font-family="DM Sans" font-size="10.26" font-weight="400" fill="#1C1836" text-anchor="start">the sheet by morning.</text><rect x="18" y="176" width="182.8" height="17" rx="8.5" fill="#FFF4E5" stroke="#FFD59A" stroke-width=".8"/><text x="25" y="187.74" font-family="JetBrains Mono" font-size="9.72" font-weight="500" fill="#B85E00" text-anchor="start" letter-spacing="1.2">HIRING NOW · 6 COMPANIES</text><text x="18" y="214" font-family="JetBrains Mono" font-size="9.72" font-weight="500" fill="#6E6A8A" text-anchor="start" letter-spacing="1.2">JOB POSTS = BUYING SIGNAL</text><line x1="262" y1="72" x2="292" y2="72" stroke="#00C8FF" stroke-width="1.4" stroke-linecap="round"/><path d="M287.6 74.4 L292 72 L287.6 69.6" stroke="#00C8FF" stroke-width="1.4" fill="none" stroke-linecap="round" stroke-linejoin="round"/><rect x="296" y="12" width="392" height="268" rx="10" fill="#FFFFFF" stroke="#CEC5E4" stroke-width="1.2"/><line x1="296" y1="34" x2="688" y2="34" stroke="#E6E0F3" stroke-width="1" stroke-linecap="round"/><circle cx="310" cy="23" r="3" fill="#F98D8D"/><circle cx="321" cy="23" r="3" fill="#FFC26C"/><circle cx="332" cy="23" r="3" fill="#5DDCAD"/><text x="492.0" y="26.8" font-family="JetBrains Mono" font-size="9.72" font-weight="500" fill="#6E6A8A" text-anchor="middle" letter-spacing="1.2">LEADS · GOOGLE SHEET</text><text x="308" y="54" font-family="JetBrains Mono" font-size="9.72" font-weight="500" fill="#6E6A8A" text-anchor="start" letter-spacing="1.2">NAME</text><text x="396" y="54" font-family="JetBrains Mono" font-size="9.72" font-weight="500" fill="#6E6A8A" text-anchor="start" letter-spacing="1.2">TITLE</text><text x="504" y="54" font-family="JetBrains Mono" font-size="9.72" font-weight="500" fill="#6E6A8A" text-anchor="start" letter-spacing="1.2">COMPANY</text><text x="588" y="54" font-family="JetBrains Mono" font-size="9.72" font-weight="500" fill="#6E6A8A" text-anchor="start" letter-spacing="1.2">WORK EMAIL</text><line x1="296" y1="62" x2="688" y2="62" stroke="#E6E0F3" stroke-width="1" stroke-linecap="round"/><rect x="308" y="72" width="70" height="5" rx="2.5" fill="#CEC5E4" /><text x="396" y="78" font-family="DM Sans" font-size="10.26" font-weight="400" fill="#1C1836" text-anchor="start">Marketing Head</text><rect x="504" y="72" width="62" height="5" rx="2.5" fill="#CEC5E4" /><rect x="588" y="72" width="60" height="5" rx="2.5" fill="#00C8FF" /><path d="M660 74.0 l3.5 3.5 l6.5 -7.5" stroke="#34D399" stroke-width="1.6" fill="none" stroke-linecap="round" stroke-linejoin="round"/><line x1="304" y1="92" x2="680" y2="92" stroke="#E6E0F3" stroke-width="0.6" stroke-linecap="round"/><rect x="308" y="104" width="70" height="5" rx="2.5" fill="#CEC5E4" /><text x="396" y="110" font-family="DM Sans" font-size="10.26" font-weight="400" fill="#1C1836" text-anchor="start">Head of Marketing</text><rect x="504" y="104" width="62" height="5" rx="2.5" fill="#CEC5E4" /><rect x="588" y="104" width="60" height="5" rx="2.5" fill="#00C8FF" /><path d="M660 106.0 l3.5 3.5 l6.5 -7.5" stroke="#34D399" stroke-width="1.6" fill="none" stroke-linecap="round" stroke-linejoin="round"/><line x1="304" y1="124" x2="680" y2="124" stroke="#E6E0F3" stroke-width="0.6" stroke-linecap="round"/><rect x="308" y="136" width="70" height="5" rx="2.5" fill="#CEC5E4" /><text x="396" y="142" font-family="DM Sans" font-size="10.26" font-weight="400" fill="#1C1836" text-anchor="start">Marketing Manager</text><rect x="504" y="136" width="62" height="5" rx="2.5" fill="#CEC5E4" /><rect x="588" y="136" width="60" height="5" rx="2.5" fill="#00C8FF" /><path d="M660 138.0 l3.5 3.5 l6.5 -7.5" stroke="#34D399" stroke-width="1.6" fill="none" stroke-linecap="round" stroke-linejoin="round"/><line x1="304" y1="156" x2="680" y2="156" stroke="#E6E0F3" stroke-width="0.6" stroke-linecap="round"/><rect x="308" y="168" width="70" height="5" rx="2.5" fill="#CEC5E4" /><text x="396" y="174" font-family="DM Sans" font-size="10.26" font-weight="400" fill="#1C1836" text-anchor="start">CMO</text><rect x="504" y="168" width="62" height="5" rx="2.5" fill="#CEC5E4" /><rect x="588" y="168" width="60" height="5" rx="2.5" fill="#00C8FF" /><path d="M660 170.0 l3.5 3.5 l6.5 -7.5" stroke="#34D399" stroke-width="1.6" fill="none" stroke-linecap="round" stroke-linejoin="round"/><line x1="304" y1="188" x2="680" y2="188" stroke="#E6E0F3" stroke-width="0.6" stroke-linecap="round"/><rect x="308" y="200" width="70" height="5" rx="2.5" fill="#CEC5E4" /><text x="396" y="206" font-family="DM Sans" font-size="10.26" font-weight="400" fill="#1C1836" text-anchor="start">Brand Manager</text><rect x="504" y="200" width="62" height="5" rx="2.5" fill="#CEC5E4" /><rect x="588" y="200" width="30" height="5" rx="2.5" fill="#00C8FF" /><rect x="626" y="194" width="43.2" height="14" rx="7.0" fill="#FFF4E5" stroke="#FFD59A" stroke-width=".8"/><text x="630" y="204.24" font-family="JetBrains Mono" font-size="9.72" font-weight="500" fill="#B85E00" text-anchor="start" letter-spacing="1.2">CHECK</text><line x1="304" y1="220" x2="680" y2="220" stroke="#E6E0F3" stroke-width="0.6" stroke-linecap="round"/><rect x="308" y="232" width="70" height="5" rx="2.5" fill="#CEC5E4" /><text x="396" y="238" font-family="DM Sans" font-size="10.26" font-weight="400" fill="#1C1836" text-anchor="start">Growth Lead</text><rect x="504" y="232" width="62" height="5" rx="2.5" fill="#CEC5E4" /><rect x="588" y="232" width="60" height="5" rx="2.5" fill="#00C8FF" /><path d="M660 234.0 l3.5 3.5 l6.5 -7.5" stroke="#34D399" stroke-width="1.6" fill="none" stroke-linecap="round" stroke-linejoin="round"/><line x1="304" y1="252" x2="680" y2="252" stroke="#E6E0F3" stroke-width="0.6" stroke-linecap="round"/><rect x="308" y="248" width="200" height="22" rx="6" fill="#F1E9FB" stroke="#7B35C1" stroke-width="0.8"/><text x="318" y="263" font-family="JetBrains Mono" font-size="9.72" font-weight="500" fill="#1C1836" text-anchor="start" letter-spacing="1.2">FIRST MESSAGE DRAFTED</text><rect x="604" y="250" width="72" height="17" rx="8.5" fill="#FFFFFF" stroke="#CEC5E4" stroke-width="0.8"/><text x="640" y="262" font-family="JetBrains Mono" font-size="9.72" font-weight="500" fill="#6E6A8A" text-anchor="middle" letter-spacing="1.2">EXAMPLE</text></svg>
