<svg xmlns="http://www.w3.org/2000/svg" viewBox="0 0 760 590" role="img" fill="none"><defs></defs><circle cx="380" cy="290" r="252" fill="none" stroke="#091D22" stroke-width="0.8"/><circle cx="380" cy="290" r="206" fill="none" stroke="#083440" stroke-width="0.8"/><circle cx="380" cy="290" r="132" fill="none" stroke="#082831" stroke-width="0.8"/><circle cx="380" cy="290" r="90" fill="none" stroke="#083440" stroke-width="0.8"/><line x1="380.0" y1="200.0" x2="380.0" y2="106.0" stroke="#784406" stroke-width="1" stroke-linecap="round"/><circle cx="380.0" cy="158.0" r="2.4" fill="#E67D01"/><line x1="412.5117499568438" y1="206.07749935360798" x2="446.46846657843616" y2="118.42510978959852" stroke="#066078" stroke-width="1" stroke-linecap="round"/><circle cx="427.6838999367042" cy="166.91366571862503" r="2.4" fill="#01B5E6"/><line x1="440.63260792819017" y1="223.4891974501407" x2="503.9599984309665" y2="154.02235923139872" stroke="#066078" stroke-width="1" stroke-linecap="round"/><circle cx="468.92782496134555" cy="192.450822926873" r="2.4" fill="#01B5E6"/><line x1="460.5646962219556" y1="249.88354798011156" x2="544.7100456093315" y2="207.98414253711695" stroke="#066078" stroke-width="1" stroke-linecap="round"/><circle cx="498.16155445886824" cy="231.16253703749695" r="2.4" fill="#01B5E6"/><line x1="469.6160758665531" y1="281.69584764830284" x2="563.2150884382864" y2="273.0226218587524" stroke="#066078" stroke-width="1" stroke-linecap="round"/><circle cx="511.43691127094456" cy="277.8205765508441" r="2.4" fill="#01B5E6"/><line x1="466.5643078855537" y1="314.6296691064875" x2="556.9759183437988" y2="340.35399017326324" stroke="#3D1D5C" stroke-width="1" stroke-linecap="round"/><circle cx="506.9609848988121" cy="326.12351468951493" r="2.4" fill="#7031AF"/><line x1="451.82155045522154" y1="344.2371172741331" x2="526.835169819564" y2="400.88477309378317" stroke="#3D1D5C" stroke-width="1" stroke-linecap="round"/><circle cx="485.33827400099165" cy="369.54777200206183" r="2.4" fill="#7031AF"/><line x1="427.37889465896205" y1="366.51954221566524" x2="476.8635179694335" y2="446.43995297424897" stroke="#27466B" stroke-width="1" stroke-linecap="round"/><circle cx="449.489045499811" cy="402.2286619163091" r="2.4" fill="#4483CC"/><line x1="396.5374566034913" y1="378.4675789715512" x2="413.80991127824893" y2="470.86705034183797" stroke="#27466B" stroke-width="1" stroke-linecap="round"/><circle cx="404.2549363517873" cy="419.752449158275" r="2.4" fill="#4483CC"/><line x1="363.4625433965087" y1="378.4675789715512" x2="346.19008872175107" y2="470.86705034183797" stroke="#27466B" stroke-width="1" stroke-linecap="round"/><circle cx="355.74506364821275" cy="419.752449158275" r="2.4" fill="#4483CC"/><line x1="332.62110534103795" y1="366.5195422156653" x2="283.1364820305665" y2="446.439952974249" stroke="#27466B" stroke-width="1" stroke-linecap="round"/><circle cx="310.51095450018903" cy="402.2286619163091" r="2.4" fill="#4483CC"/><line x1="308.1784495447785" y1="344.23711727413314" x2="233.16483018043604" y2="400.88477309378334" stroke="#1D644A" stroke-width="1" stroke-linecap="round"/><circle cx="274.66172599900847" cy="369.54777200206195" r="2.4" fill="#30BF8B"/><line x1="293.4356921144463" y1="314.6296691064875" x2="203.0240816562013" y2="340.35399017326324" stroke="#1D644A" stroke-width="1" stroke-linecap="round"/><circle cx="253.03901510118789" cy="326.123514689515" r="2.4" fill="#30BF8B"/><line x1="290.3839241334469" y1="281.6958476483028" x2="196.78491156171367" y2="273.0226218587523" stroke="#1D644A" stroke-width="1" stroke-linecap="round"/><circle cx="248.56308872905544" cy="277.82057655084407" r="2.4" fill="#30BF8B"/><line x1="299.4353037780444" y1="249.8835479801116" x2="215.2899543906685" y2="207.98414253711704" stroke="#1D644A" stroke-width="1" stroke-linecap="round"/><circle cx="261.83844554113176" cy="231.16253703749703" r="2.4" fill="#30BF8B"/><line x1="319.36739207180983" y1="223.48919745014072" x2="256.0400015690334" y2="154.0223592313988" stroke="#717376" stroke-width="1" stroke-linecap="round"/><circle cx="291.0721750386544" cy="192.45082292687306" r="2.4" fill="#D7DCE2"/><line x1="347.48825004315626" y1="206.07749935360798" x2="313.5315334215639" y2="118.42510978959852" stroke="#717376" stroke-width="1" stroke-linecap="round"/><circle cx="332.31610006329583" cy="166.91366571862503" r="2.4" fill="#D7DCE2"/><line x1="380.0" y1="84.0" x2="454.41578323455354" y2="97.9107207427027" stroke="#272C34" stroke-width="0.7" stroke-linecap="round" stroke-dasharray="2 4"/><line x1="454.41578323455354" y1="97.9107207427027" x2="518.7813025911908" y2="137.76416305254423" stroke="#02A2CE" stroke-width="1.1" stroke-linecap="round"/><line x1="518.7813025911908" y1="137.76416305254423" x2="564.4036380191428" y2="198.1778987100331" stroke="#02A2CE" stroke-width="1.1" stroke-linecap="round"/><line x1="564.4036380191428" y1="198.1778987100331" x2="585.1212403167772" y2="270.9927179505598" stroke="#02A2CE" stroke-width="1.1" stroke-linecap="round"/><line x1="585.1212403167772" y1="270.9927179505598" x2="578.1360824936007" y2="346.3745759548491" stroke="#272C34" stroke-width="0.7" stroke-linecap="round" stroke-dasharray="2 4"/><line x1="578.1360824936007" y1="346.3745759548491" x2="544.3915488197293" y2="414.1427350941268" stroke="#642C9C" stroke-width="1.1" stroke-linecap="round"/><line x1="544.3915488197293" y1="414.1427350941268" x2="488.44502555273533" y2="465.1447299603005" stroke="#272C34" stroke-width="0.7" stroke-linecap="round" stroke-dasharray="2 4"/><line x1="488.44502555273533" y1="465.1447299603005" x2="417.85240067021346" y2="492.4924585348838" stroke="#3D75B7" stroke-width="1.1" stroke-linecap="round"/><line x1="417.85240067021346" y1="492.4924585348838" x2="342.14759932978654" y2="492.4924585348838" stroke="#3D75B7" stroke-width="1.1" stroke-linecap="round"/><line x1="342.14759932978654" y1="492.4924585348838" x2="271.55497444726467" y2="465.14472996030054" stroke="#3D75B7" stroke-width="1.1" stroke-linecap="round"/><line x1="271.55497444726467" y1="465.14472996030054" x2="215.60845118027078" y2="414.142735094127" stroke="#272C34" stroke-width="0.7" stroke-linecap="round" stroke-dasharray="2 4"/><line x1="215.60845118027078" y1="414.142735094127" x2="181.86391750639928" y2="346.3745759548491" stroke="#2CAB7C" stroke-width="1.1" stroke-linecap="round"/><line x1="181.86391750639928" y1="346.3745759548491" x2="174.8787596832229" y2="270.99271795055967" stroke="#2CAB7C" stroke-width="1.1" stroke-linecap="round"/><line x1="174.8787596832229" y1="270.99271795055967" x2="195.59636198085713" y2="198.17789871003322" stroke="#2CAB7C" stroke-width="1.1" stroke-linecap="round"/><line x1="195.59636198085713" y1="198.17789871003322" x2="241.2186974088091" y2="137.76416305254432" stroke="#272C34" stroke-width="0.7" stroke-linecap="round" stroke-dasharray="2 4"/><line x1="241.2186974088091" y1="137.76416305254432" x2="305.5842167654465" y2="97.9107207427027" stroke="#C0C4CA" stroke-width="1.1" stroke-linecap="round"/><line x1="305.5842167654465" y1="97.9107207427027" x2="380.0" y2="84.0" stroke="#272C34" stroke-width="0.7" stroke-linecap="round" stroke-dasharray="2 4"/><circle cx="380.0" cy="84.0" r="35" fill="#271909"/><circle cx="380.0" cy="84.0" r="27" fill="#0F1217" stroke="#FF8A00" stroke-width="1.6"/><g transform="translate(365.0 69.0) scale(1.25)" stroke="#FF8A00" stroke-width="1.6" stroke-linecap="round" stroke-linejoin="round" fill="none" color="#FF8A00"><path d="M4 5.5h11a2.5 2.5 0 0 1 2.5 2.5v5.5a2.5 2.5 0 0 1-2.5 2.5H9l-4 3v-3H4a2.5 2.5 0 0 1-2.5-2.5V8A2.5 2.5 0 0 1 4 5.5z"/><path d="M19.5 2.5v4M17.5 4.5h4"/><path d="M6 10.5h7M6 13h4"/></g><text x="380.0" y="37.0" font-family="DM Sans" font-size="12.42" font-weight="600" fill="#EEF3FA" text-anchor="middle">Personal AI Assistant</text><circle cx="454.41578323455354" cy="97.9107207427027" r="30" fill="#092127"/><circle cx="454.41578323455354" cy="97.9107207427027" r="22" fill="#0F1217" stroke="#00C8FF" stroke-width="1.2"/><g transform="translate(442.4 85.9) scale(1.0)" stroke="#00C8FF" stroke-width="1.6" stroke-linecap="round" stroke-linejoin="round" fill="none" color="#00C8FF"><rect x="3" y="2.5" width="9" height="19" rx="2"/><path d="M6.5 18.5h2"/><path d="M12 12h4"/><circle cx="19" cy="12" r="2.6"/><path d="M19 9.4V6M19 14.6V18"/></g><text x="466.6979998849167" y="58.2066649429546" font-family="DM Sans" font-size="12.42" font-weight="600" fill="#EEF3FA" text-anchor="start">WhatsApp Connect</text><circle cx="518.7813025911908" cy="137.76416305254423" r="30" fill="#092127"/><circle cx="518.7813025911908" cy="137.76416305254423" r="22" fill="#0F1217" stroke="#00C8FF" stroke-width="1.2"/><g transform="translate(506.8 125.8) scale(1.0)" stroke="#00C8FF" stroke-width="1.6" stroke-linecap="round" stroke-linejoin="round" fill="none" color="#00C8FF"><path d="M3 13.5 5.5 5h13L21 13.5V19a1.5 1.5 0 0 1-1.5 1.5h-15A1.5 1.5 0 0 1 3 19z"/><path d="M3 13.5h5l1.5 2.5h5l1.5-2.5h5"/></g><text x="541.6869544751737" y="104.63785986704183" font-family="DM Sans" font-size="12.42" font-weight="600" fill="#EEF3FA" text-anchor="start">Inbox</text><circle cx="564.4036380191428" cy="198.1778987100331" r="30" fill="#092127"/><circle cx="564.4036380191428" cy="198.1778987100331" r="22" fill="#0F1217" stroke="#00C8FF" stroke-width="1.2"/><g transform="translate(552.4 186.2) scale(1.0)" stroke="#00C8FF" stroke-width="1.6" stroke-linecap="round" stroke-linejoin="round" fill="none" color="#00C8FF"><rect x="3" y="3" width="18" height="18" rx="5"/><circle cx="12" cy="12" r="4"/><circle cx="17.2" cy="6.8" r=".6" fill="currentColor"/></g><text x="594.8391899252149" y="175.0227946136308" font-family="DM Sans" font-size="12.42" font-weight="600" fill="#EEF3FA" text-anchor="start">Instagram Automation</text><circle cx="585.1212403167772" cy="270.9927179505598" r="30" fill="#092127"/><circle cx="585.1212403167772" cy="270.9927179505598" r="22" fill="#0F1217" stroke="#00C8FF" stroke-width="1.2"/><g transform="translate(573.1 259.0) scale(1.0)" stroke="#00C8FF" stroke-width="1.6" stroke-linecap="round" stroke-linejoin="round" fill="none" color="#00C8FF"><rect x="2.5" y="3.5" width="19" height="15" rx="2"/><path d="M2.5 7.5h19"/><path d="M8 15l6.5-6.5 1.8 1.8L9.8 16.8H8z"/></g><text x="618.9762023108084" y="276.4927179505598" font-family="DM Sans" font-size="12.42" font-weight="600" fill="#EEF3FA" text-anchor="start">Dashboard Websites</text><circle cx="578.1360824936007" cy="346.3745759548491" r="30" fill="#180F20"/><circle cx="578.1360824936007" cy="346.3745759548491" r="22" fill="#0F1217" stroke="#7B35C1" stroke-width="1.2"/><g transform="translate(566.1 334.4) scale(1.0)" stroke="#7B35C1" stroke-width="1.6" stroke-linecap="round" stroke-linejoin="round" fill="none" color="#7B35C1"><path d="M12 3a9 9 0 0 0-7.8 13.5L3 21l4.6-1.2A9 9 0 1 0 12 3z"/><circle cx="8.3" cy="12" r=".9" fill="currentColor"/><circle cx="12" cy="12" r=".9" fill="currentColor"/><circle cx="15.7" cy="12" r=".9" fill="currentColor"/></g><text x="610.8381543614765" y="351.8745759548491" font-family="DM Sans" font-size="12.42" font-weight="600" fill="#EEF3FA" text-anchor="start">AI WhatsApp Agent</text><circle cx="544.3915488197293" cy="414.1427350941268" r="30" fill="#180F20"/><circle cx="544.3915488197293" cy="414.1427350941268" r="22" fill="#0F1217" stroke="#7B35C1" stroke-width="1.2"/><g transform="translate(532.4 402.1) scale(1.0)" stroke="#7B35C1" stroke-width="1.6" stroke-linecap="round" stroke-linejoin="round" fill="none" color="#7B35C1"><path d="M5 3.5h3l1.5 4-2 1.3a10 10 0 0 0 5 5l1.3-2 4 1.5v3a2 2 0 0 1-2 2A15.5 15.5 0 0 1 3 5.5a2 2 0 0 1 2-2z"/><path d="M15 3.5a6 6 0 0 1 5.5 5.5M15 7a2.8 2.8 0 0 1 2 2"/></g><text x="571.5241345472575" y="452.6323127310215" font-family="DM Sans" font-size="12.42" font-weight="600" fill="#EEF3FA" text-anchor="start">Voice Agent</text><circle cx="488.44502555273533" cy="465.1447299603005" r="30" fill="#121A24"/><circle cx="488.44502555273533" cy="465.1447299603005" r="22" fill="#0F1217" stroke="#4A90E2" stroke-width="1.2"/><g transform="translate(476.4 453.1) scale(1.0)" stroke="#4A90E2" stroke-width="1.6" stroke-linecap="round" stroke-linejoin="round" fill="none" color="#4A90E2"><rect x="3" y="3.5" width="5" height="17" rx="1.5"/><rect x="9.5" y="3.5" width="5" height="11" rx="1.5"/><rect x="16" y="3.5" width="5" height="7" rx="1.5"/></g><text x="506.34371909056546" y="512.0521125751073" font-family="DM Sans" font-size="12.42" font-weight="600" fill="#EEF3FA" text-anchor="start">CRM</text><circle cx="417.85240067021346" cy="492.4924585348838" r="30" fill="#121A24"/><circle cx="417.85240067021346" cy="492.4924585348838" r="22" fill="#0F1217" stroke="#4A90E2" stroke-width="1.2"/><g transform="translate(405.9 480.5) scale(1.0)" stroke="#4A90E2" stroke-width="1.6" stroke-linecap="round" stroke-linejoin="round" fill="none" color="#4A90E2"><path d="M3 4h18l-7 8.5V19l-4 2v-8.5z"/></g><text x="424.0998842759768" y="543.9135439241364" font-family="DM Sans" font-size="12.42" font-weight="600" fill="#EEF3FA" text-anchor="middle">Lead Capture</text><circle cx="342.14759932978654" cy="492.4924585348838" r="30" fill="#121A24"/><circle cx="342.14759932978654" cy="492.4924585348838" r="22" fill="#0F1217" stroke="#4A90E2" stroke-width="1.2"/><g transform="translate(330.1 480.5) scale(1.0)" stroke="#4A90E2" stroke-width="1.6" stroke-linecap="round" stroke-linejoin="round" fill="none" color="#4A90E2"><rect x="3" y="4.5" width="18" height="16" rx="2"/><path d="M3 9h18M8 2.5v4M16 2.5v4"/><path d="m8.5 14.5 2.3 2.3 4.7-4.8"/></g><text x="335.9001157240232" y="543.9135439241364" font-family="DM Sans" font-size="12.42" font-weight="600" fill="#EEF3FA" text-anchor="middle">Bookings</text><circle cx="271.55497444726467" cy="465.14472996030054" r="30" fill="#121A24"/><circle cx="271.55497444726467" cy="465.14472996030054" r="22" fill="#0F1217" stroke="#4A90E2" stroke-width="1.2"/><g transform="translate(259.6 453.1) scale(1.0)" stroke="#4A90E2" stroke-width="1.6" stroke-linecap="round" stroke-linejoin="round" fill="none" color="#4A90E2"><path d="M3 10v4a1.5 1.5 0 0 0 1.5 1.5H7l7 4.5V4L7 8.5H4.5A1.5 1.5 0 0 0 3 10z"/><path d="M17.5 9a4 4 0 0 1 0 6M20 6.5a7.5 7.5 0 0 1 0 11"/></g><text x="253.65628090943457" y="512.0521125751075" font-family="DM Sans" font-size="12.42" font-weight="600" fill="#EEF3FA" text-anchor="end">Broadcasts</text><circle cx="215.60845118027078" cy="414.142735094127" r="30" fill="#0F221B"/><circle cx="215.60845118027078" cy="414.142735094127" r="22" fill="#0F1217" stroke="#34D399" stroke-width="1.2"/><g transform="translate(203.6 402.1) scale(1.0)" stroke="#34D399" stroke-width="1.6" stroke-linecap="round" stroke-linejoin="round" fill="none" color="#34D399"><circle cx="10.5" cy="10.5" r="7"/><path d="m15.5 15.5 5 5"/><circle cx="10.5" cy="8.8" r="2.2"/><path d="M6.8 14.4a4.5 4.5 0 0 1 7.4 0"/></g><text x="188.47586545274265" y="452.6323127310217" font-family="DM Sans" font-size="12.42" font-weight="600" fill="#EEF3FA" text-anchor="end">Lead Finder</text><circle cx="181.86391750639928" cy="346.3745759548491" r="30" fill="#0F221B"/><circle cx="181.86391750639928" cy="346.3745759548491" r="22" fill="#0F1217" stroke="#34D399" stroke-width="1.2"/><g transform="translate(169.9 334.4) scale(1.0)" stroke="#34D399" stroke-width="1.6" stroke-linecap="round" stroke-linejoin="round" fill="none" color="#34D399"><rect x="2.5" y="5" width="15" height="12" rx="1.5"/><path d="m2.5 6.5 7.5 5.5 7.5-5.5"/><path d="M15.5 19.5h6M19 17l2.5 2.5L19 22"/></g><text x="149.16184563852343" y="351.8745759548491" font-family="DM Sans" font-size="12.42" font-weight="600" fill="#EEF3FA" text-anchor="end">Cold Email</text><circle cx="174.8787596832229" cy="270.99271795055967" r="30" fill="#0F221B"/><circle cx="174.8787596832229" cy="270.99271795055967" r="22" fill="#0F1217" stroke="#34D399" stroke-width="1.2"/><g transform="translate(162.9 259.0) scale(1.0)" stroke="#34D399" stroke-width="1.6" stroke-linecap="round" stroke-linejoin="round" fill="none" color="#34D399"><rect x="6.5" y="4" width="11" height="16" rx="1.8"/><path d="M4 6.5v11M20 6.5v11M1.5 9v6M22.5 9v6"/></g><text x="141.02379768919172" y="276.49271795055967" font-family="DM Sans" font-size="12.42" font-weight="600" fill="#EEF3FA" text-anchor="end">Carousel Studio</text><circle cx="195.59636198085713" cy="198.17789871003322" r="30" fill="#0F221B"/><circle cx="195.59636198085713" cy="198.17789871003322" r="22" fill="#0F1217" stroke="#34D399" stroke-width="1.2"/><g transform="translate(183.6 186.2) scale(1.0)" stroke="#34D399" stroke-width="1.6" stroke-linecap="round" stroke-linejoin="round" fill="none" color="#34D399"><rect x="6" y="2.5" width="12" height="19" rx="2"/><path d="M10.5 9.2v5.6l4.4-2.8z"/></g><text x="165.160810074785" y="175.02279461363094" font-family="DM Sans" font-size="12.42" font-weight="600" fill="#EEF3FA" text-anchor="end">Video Factory</text><circle cx="241.2186974088091" cy="137.76416305254432" r="30" fill="#252627"/><circle cx="241.2186974088091" cy="137.76416305254432" r="22" fill="#0F1217" stroke="#EEF3FA" stroke-width="1.2"/><g transform="translate(229.2 125.8) scale(1.0)" stroke="#EEF3FA" stroke-width="1.6" stroke-linecap="round" stroke-linejoin="round" fill="none" color="#EEF3FA"><circle cx="5" cy="6" r="2.5"/><circle cx="5" cy="18" r="2.5"/><circle cx="19" cy="12" r="2.5"/><path d="M7.5 6h3.5a3 3 0 0 1 3 3v0a3 3 0 0 0 2.5 3M7.5 18h3.5a3 3 0 0 0 3-3v0a3 3 0 0 1 2.5-3"/></g><text x="218.31304552482615" y="104.63785986704193" font-family="DM Sans" font-size="12.42" font-weight="600" fill="#EEF3FA" text-anchor="end">Automate</text><circle cx="305.5842167654465" cy="97.9107207427027" r="30" fill="#252627"/><circle cx="305.5842167654465" cy="97.9107207427027" r="22" fill="#0F1217" stroke="#EEF3FA" stroke-width="1.2"/><g transform="translate(293.6 85.9) scale(1.0)" stroke="#EEF3FA" stroke-width="1.6" stroke-linecap="round" stroke-linejoin="round" fill="none" color="#EEF3FA"><path d="M12 2.5 4 5.5v6c0 5 3.4 8.6 8 10 4.6-1.4 8-5 8-10v-6z"/><path d="M7 12.5h2.5l1.5-3 2 5.5 1.5-2.5H17"/></g><text x="293.30200011508333" y="58.2066649429546" font-family="DM Sans" font-size="12.42" font-weight="600" fill="#EEF3FA" text-anchor="end">Care</text><circle cx="380" cy="290" r="70" fill="#09191E"/><circle cx="380" cy="290" r="58" fill="#0A0A0A" stroke="#00C8FF" stroke-width="1.6"/><circle cx="380" cy="290" r="64" fill="none" stroke="#4E2478" stroke-width="1"/><image href="../assets/logo-mark-dark.png" x="336" y="260" width="88" height="38.3" preserveAspectRatio="xMidYMid meet"/><text x="380" y="317" font-family="DM Sans" font-size="10.58" font-weight="600" fill="#B386EC" text-anchor="middle">One system</text></svg>
